<?xml version="1.0" encoding="UTF-8"?>
<svg version="1.1" xmlns="http://www.w3.org/2000/svg" width="824" height="270">
<path d="M0 0 C0.70198517 -0.00073517 1.40397034 -0.00147034 2.12722778 -0.00222778 C35.72334358 0.08979286 63.08828425 14.02338415 86.68359375 37.484375 C98.92915089 50.59229532 107.41279335 66.40838101 112.5625 83.5 C112.77430908 84.20237793 112.98611816 84.90475586 113.2043457 85.62841797 C114.39749397 89.85908686 114.625 92.91454175 114.625 97.4375 C100.435 97.4375 86.245 97.4375 71.625 97.4375 C69.315 92.1575 67.005 86.8775 64.625 81.4375 C52.91234372 62.96119713 37.41115831 49.85888051 15.875 44.5 C-4.09089783 40.89442026 -23.01236124 43.94359745 -40.375 54.4375 C-43.86862043 56.93962441 -47.13134873 59.62324085 -50.375 62.4375 C-51.6125 63.35982422 -51.6125 63.35982422 -52.875 64.30078125 C-65.17600014 74.81429231 -72.22784772 92.81839226 -74.375 108.4375 C-75.86477699 131.29995777 -70.03792162 150.82798028 -54.91015625 168.28125 C-42.54039095 181.50472891 -24.16764869 190.83388477 -5.90234375 191.7734375 C15.21135756 192.19302072 35.00783012 186.23558754 50.625 171.4375 C60.90078989 161.39989067 66.10517911 150.68507014 71.625 137.4375 C85.815 137.4375 100.005 137.4375 114.625 137.4375 C114.625 157.61320356 103.61673984 179.38357924 90.625 194.4375 C89.88378906 195.31535156 89.14257812 196.19320312 88.37890625 197.09765625 C69.71073034 218.54826393 43.05547718 232.19260751 14.625 234.4375 C-21.82209511 236.20528403 -53.44712536 228.54115834 -80.98876953 203.99951172 C-101.28554549 185.46166404 -115.91543325 158.30686697 -117.61035156 130.58862305 C-117.77698417 126.20507232 -117.81430675 121.82387598 -117.8125 117.4375 C-117.81323517 116.66159515 -117.81397034 115.88569031 -117.81472778 115.08627319 C-117.78442091 102.90777824 -116.87740674 91.87266875 -112.375 80.4375 C-112.1073584 79.73157715 -111.8397168 79.0256543 -111.56396484 78.29833984 C-99.35167377 46.62651056 -74.03822604 22.13753752 -43.36572266 8.28955078 C-29.20286217 2.22769364 -15.36123439 -0.0070243 0 0 Z " fill="#000000" transform="translate(155.375,18.5625)"/>
<path d="M0 0 C12.27597279 11.2937415 20.99528731 26.67074738 22.07055664 43.59179688 C22.91521031 65.01509285 18.22254982 81.88532203 3.9296875 98.375 C3.30191406 99.15875 2.67414063 99.9425 2.02734375 100.75 C-6.67050321 111.27990879 -17.55258615 116.80664501 -31.0703125 118.375 C-44.64368462 119.37275311 -58.35288757 119.75803701 -71.0703125 114.375 C-72.08609375 113.9625 -73.101875 113.55 -74.1484375 113.125 C-89.62939231 106.13872296 -101.54209581 93.6804565 -108.078125 78.0390625 C-114.82099924 59.93417969 -115.13450371 41.43956568 -107.52734375 23.60546875 C-99.29359834 6.21474333 -86.74023391 -5.21048338 -69.0703125 -12.625 C-45.32646606 -20.97988516 -19.08792411 -16.70642136 0 0 Z " fill="#000000" transform="translate(200.0703125,84.625)"/>
<path d="M0 0 C44 0 44 0 53 5 C59.20580491 11.89533879 62.69917761 19.26818751 62.2734375 28.68359375 C61.1995883 37.78063056 57.85263343 43.86275138 51 50 C49.3443629 51.01815695 47.67887184 52.02062923 46 53 C48.06242727 56.71735265 50.12543795 60.43438075 52.18896484 64.15112305 C52.88931645 65.41275505 53.58951493 66.67447207 54.28955078 67.9362793 C55.30199534 69.76113479 56.31505105 71.5856501 57.328125 73.41015625 C57.96685547 74.5614502 58.60558594 75.71274414 59.26367188 76.89892578 C60.6445462 79.36516111 62.05181193 81.80985223 63.484375 84.24609375 C65 87 65 87 65 89 C57.74 89 50.48 89 43 89 C38.4375 80.3125 38.4375 80.3125 36.94750977 77.47412109 C33.75478817 71.4039165 30.49825165 65.37356577 27.1796875 59.37109375 C26 57 26 57 26 55 C23.69 55 21.38 55 19 55 C19 66.22 19 77.44 19 89 C12.73 89 6.46 89 0 89 C0 59.63 0 30.26 0 0 Z M19 19 C19 24.94 19 30.88 19 37 C22.3103125 37.061875 22.3103125 37.061875 25.6875 37.125 C26.92886719 37.14820312 28.17023438 37.17140625 29.44921875 37.1953125 C33.7348226 36.95958072 36.65083075 36.25612309 39.8125 33.3125 C41.51833914 29.99060274 41.45252566 27.68485182 41 24 C39.66034192 21.13474067 39.66034192 21.13474067 37 19 C33.88994835 18.38492015 30.90449791 18.52853716 27.75 18.6875 C24.8625 18.790625 21.975 18.89375 19 19 Z " fill="#000000" transform="translate(459,78)"/>
<path d="M0 0 C14.85 0 29.7 0 45 0 C45 6.27 45 12.54 45 19 C36.42 19 27.84 19 19 19 C19 24.28 19 29.56 19 35 C26.59 35 34.18 35 42 35 C42 41.27 42 47.54 42 54 C34.41 54 26.82 54 19 54 C19 59.28 19 64.56 19 70 C28.24 70 37.48 70 47 70 C47 76.27 47 82.54 47 89 C31.49 89 15.98 89 0 89 C0 59.63 0 30.26 0 0 Z " fill="#000000" transform="translate(397,78)"/>
<path d="M0 0 C0.92039062 -0.020625 1.84078125 -0.04125 2.7890625 -0.0625 C8.53557809 -0.09533723 12.52005801 0.5779918 17.625 3.25 C17.73155578 9.69070471 17.58705088 15.87641289 16.625 22.25 C13.625 23.25 13.625 23.25 10.0625 21.8125 C2.91403487 18.97144335 -4.22446714 19.57063034 -11.33984375 22.28125 C-17.78035788 25.34698417 -20.86595098 29.83944544 -23.375 36.25 C-25.8858236 44.61941201 -24.40164137 52.63908068 -20.375 60.25 C-15.97803886 65.71890651 -10.34118655 69.23135951 -3.375 70.25 C3.80730654 70.29801007 10.68340706 68.98539824 17.625 67.25 C19.2370509 74.01485645 19.89118595 80.29958914 19.625 87.25 C8.7812116 92.04409592 -5.81116388 92.07695036 -17.0625 88.625 C-28.89429089 83.85895466 -36.70333144 76.3101631 -42.33203125 64.9375 C-47.070245 52.72817018 -47.11659492 38.4550925 -42.69921875 26.1484375 C-37.44297728 14.64362579 -29.46489906 7.21114257 -17.98828125 2.1953125 C-12.03691745 0.04250228 -6.25571725 0.03475398 0 0 Z " fill="#000000" transform="translate(364.375,76.75)"/>
<path d="M0 0 C7.8889235 -1.59268241 16.31993238 -2.95255115 24 0 C30.43688088 6.04898471 34.20373027 14.5136835 37.77685547 22.47802734 C38.87538295 25.09382329 38.87538295 25.09382329 41 27 C41.34256836 26.39526855 41.68513672 25.79053711 42.03808594 25.16748047 C43.6064092 22.40200025 45.17817344 19.63849042 46.75 16.875 C47.28882813 15.92367187 47.82765625 14.97234375 48.3828125 13.9921875 C49.43730571 12.14039454 50.50633759 10.29679334 51.59082031 8.46240234 C52.99274883 6.11756477 52.99274883 6.11756477 53.87011719 3.99462891 C54.65625 2.34375 54.65625 2.34375 57 0 C60.94184916 -0.72473109 64.76002722 -0.5636169 68.75 -0.375 C70.36841797 -0.33439453 70.36841797 -0.33439453 72.01953125 -0.29296875 C74.68171065 -0.22229142 77.33984236 -0.12368401 80 0 C79.44130713 3.65002056 78.53218254 6.1343426 76.48046875 9.1953125 C75.9582373 9.98478271 75.43600586 10.77425293 74.89794922 11.58764648 C74.33350098 12.42497314 73.76905273 13.2622998 73.1875 14.125 C72.00537519 15.90940471 70.82441506 17.69458145 69.64453125 19.48046875 C69.0407666 20.39103027 68.43700195 21.3015918 67.81494141 22.23974609 C64.9455365 26.60368097 62.15691536 31.01745632 59.375 35.4375 C58.87895264 36.22334473 58.38290527 37.00918945 57.87182617 37.81884766 C56.57590288 39.87608944 55.28068867 41.93323869 54 44 C53.19719604 45.07362793 53.19719604 45.07362793 52.37817383 46.16894531 C50.42042224 50.19057285 50.52154011 53.8185747 50.48828125 58.23828125 C50.47033005 59.11904831 50.45237885 59.99981537 50.43388367 60.90727234 C50.3798809 63.7089668 50.34591734 66.51049187 50.3125 69.3125 C50.27931805 71.21682039 50.24482757 73.12111846 50.20898438 75.02539062 C50.12170606 79.68361677 50.06155294 84.34107919 50 89 C43.73 89 37.46 89 31 89 C31.06703125 86.33292969 31.1340625 83.66585937 31.203125 80.91796875 C31.91616796 54.72507697 31.91616796 54.72507697 19.85888672 32.33056641 C16.08876912 27.60380746 13.08798212 22.33766633 9.9375 17.1875 C8.67582346 15.18096304 7.41410725 13.17445102 6.15234375 11.16796875 C3.89086104 7.5202265 1.80446109 3.89314133 0 0 Z " fill="#000000" transform="translate(687,78)"/>
<path d="M0 0 C15.18 0 30.36 0 46 0 C46 5.94 46 11.88 46 18 C45 19 45 19 42.59155273 19.11352539 C41.54942627 19.10828857 40.5072998 19.10305176 39.43359375 19.09765625 C38.30888672 19.09443359 37.18417969 19.09121094 36.02539062 19.08789062 C34.84138672 19.07951172 33.65738281 19.07113281 32.4375 19.0625 C31.24962891 19.05798828 30.06175781 19.05347656 28.83789062 19.04882812 C25.89190588 19.03699686 22.94594684 19.01906076 20 19 C20 24.28 20 29.56 20 35 C27.26 35 34.52 35 42 35 C42 41.27 42 47.54 42 54 C34.74 54 27.48 54 20 54 C20.01160156 56.44277344 20.02320313 58.88554687 20.03515625 61.40234375 C20.04294684 63.75870636 20.04902359 66.11506756 20.05493164 68.47143555 C20.05997174 70.11369464 20.06680378 71.75594923 20.07543945 73.39819336 C20.08751926 75.75375479 20.09323139 78.10925709 20.09765625 80.46484375 C20.10281754 81.20339096 20.10797882 81.94193817 20.11329651 82.7028656 C20.1134925 84.46898088 20.06194719 86.23497146 20 88 C19.67 88.33 19.34 88.66 19 89 C12.73 89 6.46 89 0 89 C0 59.63 0 30.26 0 0 Z " fill="#000000" transform="translate(638,78)"/>
<path d="M0 0 C20.79 0 41.58 0 63 0 C63 6.27 63 12.54 63 19 C56.07 19 49.14 19 42 19 C42.00523682 21.01391846 42.01047363 23.02783691 42.01586914 25.1027832 C42.03242958 31.75241984 42.04348109 38.40205739 42.05181217 45.05170918 C42.05703356 49.08388165 42.06411774 53.11603303 42.07543945 57.14819336 C42.08629472 61.03852229 42.09228245 64.92883091 42.09487724 68.81917381 C42.09672672 70.3043468 42.10033821 71.78951865 42.10573006 73.274683 C42.11297549 75.3528243 42.11398946 77.43088133 42.11352539 79.5090332 C42.115746 80.69261917 42.11796661 81.87620514 42.12025452 83.09565735 C42 86 42 86 41 89 C34.73 89 28.46 89 22 89 C22 65.9 22 42.8 22 19 C14.74 19 7.48 19 0 19 C0 12.73 0 6.46 0 0 Z " fill="#000000" transform="translate(526,78)"/>
<path d="M0 0 C6.27 0 12.54 0 19 0 C19 29.37 19 58.74 19 89 C12.73 89 6.46 89 0 89 C0 59.63 0 30.26 0 0 Z " fill="#010101" transform="translate(601,78)"/>
<path d="M0 0 C0.33 0 0.66 0 1 0 C2.09047957 30.22310542 2.09047957 30.22310542 2.1875 42.25 C2.20039062 43.00966064 2.21328125 43.76932129 2.2265625 44.55200195 C2.23351714 48.27056262 2.12133265 49.81800103 0 53 C-0.90735251 49.92390311 -1.09596751 47.248377 -1.02172852 44.04785156 C-1.00163223 43.06713684 -0.98153595 42.08642212 -0.96083069 41.07598877 C-0.92027809 39.4992337 -0.92027809 39.4992337 -0.87890625 37.890625 C-0.85529526 36.80867859 -0.83168427 35.72673218 -0.80735779 34.61199951 C-0.73081291 31.15786317 -0.64674869 27.7039562 -0.5625 24.25 C-0.50927016 21.90756329 -0.45652982 19.5651154 -0.40429688 17.22265625 C-0.27521013 11.48162905 -0.13995007 5.74077209 0 0 Z " fill="#070707" transform="translate(618,112)"/>
</svg>
