<?xml version="1.0" encoding="UTF-8"?>
<svg version="1.1" xmlns="http://www.w3.org/2000/svg" width="630" height="110">
<path d="M0 0 C1.94381042 2.04976236 2.50036597 3.20299699 2.86328125 5.96484375 C2.17234375 6.51527344 1.48140625 7.06570312 0.76953125 7.6328125 C-1.26617004 9.26629861 -3.28317728 10.91369003 -5.29296875 12.578125 C-6.40701158 13.47853374 -7.52160232 14.37826496 -8.63671875 15.27734375 C-9.19230469 15.74462891 -9.74789062 16.21191406 -10.3203125 16.69335938 C-12.87631991 18.7291441 -14.45181907 19.97797604 -17.78515625 19.9140625 C-20.15584559 18.95712311 -22.14352982 17.89358295 -24.26171875 16.46484375 C-29.79391291 12.76236361 -34.58833713 12.31000559 -41.13671875 12.96484375 C-47.50055411 14.56088553 -51.38373992 17.52682037 -54.984375 22.97265625 C-59.06494491 30.02720085 -59.23461128 38.09096246 -57.4609375 45.96484375 C-56.75231374 48.32916188 -55.99648969 50.65165052 -55.13671875 52.96484375 C-54.47671875 52.96484375 -53.81671875 52.96484375 -53.13671875 52.96484375 C-52.41484375 53.72796875 -51.69296875 54.49109375 -50.94921875 55.27734375 C-46.77069876 59.27015174 -43.04364196 60.7460165 -37.32421875 61.40234375 C-31.66309754 61.18163727 -25.47164559 59.02926077 -21.21484375 55.265625 C-19.13671875 53.96484375 -19.13671875 53.96484375 -16.33984375 53.9453125 C-12.12052916 55.28828946 -9.28226386 57.49688149 -5.88671875 60.27734375 C-5.2628125 60.76396484 -4.63890625 61.25058594 -3.99609375 61.75195312 C1.53205578 66.17804699 1.53205578 66.17804699 2.86328125 69.96484375 C-9.5670522 81.71777483 -22.14990091 86.32998479 -39.18359375 86.1796875 C-53.56661392 85.39800162 -65.7684388 79.92125765 -76.13671875 69.96484375 C-84.42522048 59.98374272 -86.31526584 49.30280748 -86.32421875 36.65234375 C-86.33646484 35.75322266 -86.34871094 34.85410156 -86.36132812 33.92773438 C-86.37931282 25.63679123 -85.38643327 18.42936033 -81.19921875 11.15234375 C-80.69519531 10.25902344 -80.19117187 9.36570312 -79.671875 8.4453125 C-78.2594729 6.16318696 -76.88193119 4.00488772 -75.13671875 1.96484375 C-74.47671875 1.96484375 -73.81671875 1.96484375 -73.13671875 1.96484375 C-73.13671875 1.30484375 -73.13671875 0.64484375 -73.13671875 -0.03515625 C-51.43216323 -17.61986558 -21.65955692 -17.44509768 0 0 Z " fill="#262626" transform="translate(164.13671875,14.03515625)"/>
<path d="M0 0 C0.88349121 -0.00807175 1.76698242 -0.01614349 2.67724609 -0.02445984 C4.55352819 -0.0383101 6.42983558 -0.04902803 8.30615234 -0.05688477 C11.14861535 -0.07398482 13.98988055 -0.11784759 16.83203125 -0.16210938 C27.68743965 -0.25508829 36.09343289 0.09431562 45.3125 6.36328125 C47.1875 8.23828125 47.1875 8.23828125 47.1875 10.23828125 C47.8475 10.23828125 48.5075 10.23828125 49.1875 10.23828125 C54.42256481 17.56737198 53.83681007 26.59885005 53.1875 35.23828125 C51.68021048 41.1199871 48.87023277 45.41815715 44.1875 49.23828125 C43.5275 49.23828125 42.8675 49.23828125 42.1875 49.23828125 C42.54577881 49.87330566 42.90405762 50.50833008 43.27319336 51.16259766 C44.89975171 54.05771839 46.51245482 56.96033385 48.125 59.86328125 C48.68896484 60.86230469 49.25292969 61.86132812 49.83398438 62.890625 C50.64125977 64.35048828 50.64125977 64.35048828 51.46484375 65.83984375 C51.96234131 66.73010254 52.45983887 67.62036133 52.97241211 68.53759766 C54.29740956 71.48256889 54.87974797 74.02922862 55.1875 77.23828125 C54.8575 77.89828125 54.5275 78.55828125 54.1875 79.23828125 C50.79212148 79.38403452 47.39755098 79.47249667 44 79.55078125 C43.04029297 79.59267578 42.08058594 79.63457031 41.09179688 79.67773438 C34.00455218 79.80035107 34.00455218 79.80035107 30.30859375 77.2578125 C27.67939019 73.51494997 25.50335585 69.68934701 23.4375 65.61328125 C23.03917969 64.85015625 22.64085937 64.08703125 22.23046875 63.30078125 C20.67282172 60.29109038 19.26146825 57.460186 18.1875 54.23828125 C16.2075 54.23828125 14.2275 54.23828125 12.1875 54.23828125 C12.19797363 54.9245459 12.20844727 55.61081055 12.21923828 56.31787109 C12.26071874 59.41630414 12.28680069 62.51467886 12.3125 65.61328125 C12.32925781 66.69351563 12.34601563 67.77375 12.36328125 68.88671875 C12.36972656 69.91796875 12.37617188 70.94921875 12.3828125 72.01171875 C12.39328613 72.96481934 12.40375977 73.91791992 12.41455078 74.89990234 C12.1875 77.23828125 12.1875 77.23828125 10.1875 79.23828125 C8.12451172 79.46533203 8.12451172 79.46533203 5.6171875 79.43359375 C4.72128906 79.42714844 3.82539063 79.42070313 2.90234375 79.4140625 C1.49662109 79.38892578 1.49662109 79.38892578 0.0625 79.36328125 C-1.35482422 79.34974609 -1.35482422 79.34974609 -2.80078125 79.3359375 C-5.13827292 79.31232647 -7.47526123 79.27939641 -9.8125 79.23828125 C-11.72806985 75.19374312 -12.06079313 71.96404464 -12.05541992 67.5078125 C-12.05731827 66.85187103 -12.05921661 66.19592957 -12.06117249 65.52011108 C-12.06486076 63.36354409 -12.05420334 61.20731805 -12.04296875 59.05078125 C-12.04177562 57.54532918 -12.04132407 56.03987635 -12.0415802 54.53442383 C-12.04001865 51.3839042 -12.03175453 48.23349873 -12.01831055 45.08300781 C-12.00132129 41.05136546 -11.99749646 37.0198484 -11.99825573 32.98817444 C-11.99798336 29.88088798 -11.99249143 26.77362871 -11.98525429 23.66635132 C-11.98207975 22.18004563 -11.98010306 20.69373687 -11.97936058 19.20742798 C-11.97718408 17.12781564 -11.96841175 15.04833406 -11.95776367 12.96875 C-11.95395187 11.78692139 -11.95014008 10.60509277 -11.94621277 9.38745117 C-11.82474392 6.52664707 -11.60358994 3.98927127 -10.8125 1.23828125 C-7.46192643 -0.43700554 -3.68647732 0.0318451 0 0 Z M12.1875 21.23828125 C12.1875 25.52828125 12.1875 29.81828125 12.1875 34.23828125 C14.085 34.27953125 15.9825 34.32078125 17.9375 34.36328125 C19.00484375 34.38648438 20.0721875 34.4096875 21.171875 34.43359375 C24.13772828 34.24150481 25.73954664 33.87406317 28.1875 32.23828125 C29.60191874 29.40944378 29.50650332 27.3645138 29.1875 24.23828125 C26.79832368 21.72643328 25.43448625 21.26065319 21.953125 20.9453125 C20.21289062 20.99751953 20.21289062 20.99751953 18.4375 21.05078125 C16.375 21.11265625 14.3125 21.17453125 12.1875 21.23828125 Z " fill="#2B2B2C" transform="translate(248.8125,10.76171875)"/>
<path d="M0 0 C0.99112793 -0.00307663 1.98225586 -0.00615326 3.00341797 -0.00932312 C4.60660889 0.00145515 4.60660889 0.00145515 6.2421875 0.01245117 C7.88985107 0.0131385 7.88985107 0.0131385 9.57080078 0.01383972 C11.89421671 0.01686199 14.21763062 0.02474753 16.54101562 0.03710938 C20.10293739 0.05534696 23.66459895 0.05761917 27.2265625 0.05737305 C29.48177309 0.062289 31.73698191 0.06811765 33.9921875 0.07495117 C35.06098145 0.076064 36.12977539 0.07717682 37.23095703 0.07832336 C38.22208496 0.08470322 39.21321289 0.09108307 40.234375 0.09765625 C41.10690918 0.10146805 41.97944336 0.10527985 42.87841797 0.10920715 C45.1171875 0.24291992 45.1171875 0.24291992 48.1171875 1.24291992 C49.00737138 5.65368064 49.14795959 9.57238891 48.8046875 14.05541992 C48.72605469 15.19624023 48.64742187 16.33706055 48.56640625 17.51245117 C48.41816406 18.41350586 48.26992187 19.31456055 48.1171875 20.24291992 C45.14359301 21.72971717 42.45419571 21.35404597 39.140625 21.34057617 C38.11275375 21.33845375 38.11275375 21.33845375 37.06411743 21.33628845 C34.87342989 21.33068667 32.6828442 21.31813398 30.4921875 21.30541992 C29.00781398 21.30040515 27.52343885 21.2958422 26.0390625 21.29174805 C22.39840435 21.28071669 18.75780586 21.26345091 15.1171875 21.24291992 C15.4471875 23.55291992 15.7771875 25.86291992 16.1171875 28.24291992 C16.8285083 28.25750244 17.5398291 28.27208496 18.27270508 28.28710938 C21.49225082 28.36152998 24.71075268 28.45820992 27.9296875 28.55541992 C29.04923828 28.57797852 30.16878906 28.60053711 31.32226562 28.6237793 C32.93198242 28.67695312 32.93198242 28.67695312 34.57421875 28.73120117 C35.56397705 28.75738525 36.55373535 28.78356934 37.57348633 28.81054688 C40.1171875 29.24291992 40.1171875 29.24291992 41.9387207 30.55810547 C43.8947775 33.35461426 43.54848549 36.45887055 43.4921875 39.74291992 C43.50378906 40.41967773 43.51539063 41.09643555 43.52734375 41.79370117 C43.49838898 46.6870577 43.49838898 46.6870577 41.95239258 48.94140625 C39.36379509 50.77722016 37.50682026 50.5838788 34.35546875 50.53588867 C33.23720703 50.5262207 32.11894531 50.51655273 30.96679688 50.5065918 C29.79955078 50.48145508 28.63230469 50.45631836 27.4296875 50.43041992 C26.25083984 50.41688477 25.07199219 50.40334961 23.85742188 50.3894043 C20.94355339 50.35401318 18.03059805 50.30463802 15.1171875 50.24291992 C15.4471875 52.88291992 15.7771875 55.52291992 16.1171875 58.24291992 C31.9571875 58.73791992 31.9571875 58.73791992 48.1171875 59.24291992 C49.90663523 64.6112631 50.30998999 66.72843579 49.8046875 72.05541992 C49.70542969 73.19624023 49.60617188 74.33706055 49.50390625 75.51245117 C49.1171875 78.24291992 49.1171875 78.24291992 48.1171875 79.24291992 C46.44010326 79.3468901 44.75865959 79.38144902 43.07836914 79.38818359 C42.00377945 79.39456345 40.92918976 79.4009433 39.82203674 79.40751648 C38.06741371 79.40918571 38.06741371 79.40918571 36.27734375 79.41088867 C35.08491562 79.41421707 33.89248749 79.41754547 32.66392517 79.42097473 C30.13606147 79.42604908 27.60819105 79.4283829 25.08032227 79.42822266 C21.19992096 79.43040852 17.31980404 79.44855749 13.43945312 79.4675293 C10.98958431 79.47046315 8.53971414 79.472448 6.08984375 79.47338867 C4.33825706 79.48416695 4.33825706 79.48416695 2.55128479 79.49516296 C0.93467201 79.49054802 0.93467201 79.49054802 -0.71459961 79.48583984 C-2.14236977 79.48797737 -2.14236977 79.48797737 -3.59898376 79.49015808 C-5.8828125 79.24291992 -5.8828125 79.24291992 -7.8828125 77.24291992 C-8.08614407 74.84507121 -8.16607333 72.56218698 -8.1574707 70.1628418 C-8.16258163 69.43424454 -8.16769257 68.70564728 -8.17295837 67.95497131 C-8.1868877 65.54045456 -8.18589531 63.12622213 -8.18359375 60.71166992 C-8.18747852 59.03780002 -8.19181274 57.3639311 -8.19657898 55.69006348 C-8.20404813 52.17949225 -8.20374467 48.66902158 -8.19848633 45.15844727 C-8.19268719 40.65211056 -8.20962983 36.14618427 -8.232831 31.63991547 C-8.24753714 28.18273498 -8.24844439 24.72565409 -8.24532127 21.26844788 C-8.24583595 19.60660488 -8.25110089 17.94475652 -8.26113319 16.28294373 C-8.27342193 13.96268754 -8.26675262 11.64324054 -8.25512695 9.32299805 C-8.26659256 8.28653893 -8.26659256 8.28653893 -8.27828979 7.22914124 C-8.2570343 5.31726074 -8.2570343 5.31726074 -7.8828125 2.24291992 C-4.63469252 0.0775066 -3.74924641 -0.00612325 0 0 Z " fill="#2D2C2D" transform="translate(181.8828125,10.757080078125)"/>
<path d="M0 0 C1.48669189 -0.00945648 1.48669189 -0.00945648 3.00341797 -0.019104 C4.60660889 -0.01303131 4.60660889 -0.01303131 6.2421875 -0.00683594 C7.34062988 -0.00874939 8.43907227 -0.01066284 9.57080078 -0.01263428 C11.89420806 -0.01399584 14.21762295 -0.01030141 16.54101562 -0.00195312 C20.10303795 0.00874656 23.66455591 -0.00184963 27.2265625 -0.01464844 C29.48177195 -0.01332684 31.73698108 -0.01076444 33.9921875 -0.00683594 C35.06098145 -0.0108844 36.12977539 -0.01493286 37.23095703 -0.019104 C38.22208496 -0.01279968 39.21321289 -0.00649536 40.234375 0 C41.10690918 0.00159119 41.97944336 0.00318237 42.87841797 0.00482178 C45.1171875 0.25878906 45.1171875 0.25878906 48.1171875 2.25878906 C49.30869626 7.91845568 49.46859411 13.59463264 48.1171875 19.25878906 C46.1171875 21.25878906 46.1171875 21.25878906 43.04443359 21.48583984 C41.75617676 21.47536621 40.46791992 21.46489258 39.140625 21.45410156 C38.4553775 21.45127167 37.77013 21.44844177 37.06411743 21.44552612 C34.87329723 21.43432188 32.68288434 21.40921765 30.4921875 21.38378906 C29.0078184 21.37375954 27.5234429 21.36463364 26.0390625 21.35644531 C22.39830489 21.334382 18.75778594 21.29985082 15.1171875 21.25878906 C15.1171875 24.88878906 15.1171875 28.51878906 15.1171875 32.25878906 C23.6971875 32.25878906 32.2771875 32.25878906 41.1171875 32.25878906 C43.05063924 36.12569255 43.39011254 37.56405087 43.3671875 41.69628906 C43.37492187 43.08654297 43.37492187 43.08654297 43.3828125 44.50488281 C43.09824502 47.45517799 42.4421077 49.61361388 41.1171875 52.25878906 C38.50767514 53.56354524 36.59017465 53.37180478 33.671875 53.35644531 C32.05732422 53.35161133 32.05732422 53.35161133 30.41015625 53.34667969 C29.28222656 53.33830078 28.15429688 53.32992187 26.9921875 53.32128906 C25.28869141 53.31452148 25.28869141 53.31452148 23.55078125 53.30761719 C20.73953112 53.29580521 17.9283852 53.27933413 15.1171875 53.25878906 C15.12766113 53.97534668 15.13813477 54.6919043 15.14892578 55.43017578 C15.19040049 58.66467811 15.21648642 61.89912459 15.2421875 65.13378906 C15.25894531 66.26171875 15.27570313 67.38964844 15.29296875 68.55175781 C15.29941406 69.628125 15.30585938 70.70449219 15.3125 71.81347656 C15.32297363 72.80847168 15.33344727 73.8034668 15.34423828 74.82861328 C15.1171875 77.25878906 15.1171875 77.25878906 13.1171875 79.25878906 C11.17773438 79.51757812 11.17773438 79.51757812 8.8359375 79.52441406 C7.99417969 79.52699219 7.15242188 79.52957031 6.28515625 79.53222656 C5.40472656 79.52449219 4.52429688 79.51675781 3.6171875 79.50878906 C2.73675781 79.51652344 1.85632813 79.52425781 0.94921875 79.53222656 C0.10746094 79.52964844 -0.73429687 79.52707031 -1.6015625 79.52441406 C-2.37435547 79.5221582 -3.14714844 79.51990234 -3.94335938 79.51757812 C-5.8828125 79.25878906 -5.8828125 79.25878906 -7.8828125 77.25878906 C-8.08614407 74.86094035 -8.16607333 72.57805612 -8.1574707 70.17871094 C-8.16258163 69.45011368 -8.16769257 68.72151642 -8.17295837 67.97084045 C-8.1868877 65.5563237 -8.18589531 63.14209128 -8.18359375 60.72753906 C-8.18747852 59.05366916 -8.19181274 57.37980024 -8.19657898 55.70593262 C-8.20404813 52.19536139 -8.20374467 48.68489072 -8.19848633 45.17431641 C-8.19268719 40.6679797 -8.20962983 36.16205341 -8.232831 31.65578461 C-8.24753714 28.19860412 -8.24844439 24.74152323 -8.24532127 21.28431702 C-8.24583595 19.62247402 -8.25110089 17.96062566 -8.26113319 16.29881287 C-8.27342193 13.97855668 -8.26675262 11.65910968 -8.25512695 9.33886719 C-8.26659256 8.30240807 -8.26659256 8.30240807 -8.27828979 7.24501038 C-8.2570343 5.33312988 -8.2570343 5.33312988 -7.8828125 2.25878906 C-4.63971992 0.09672734 -3.74425507 0.00682817 0 0 Z " fill="#272727" transform="translate(419.8828125,10.7412109375)"/>
<path d="M0 0 C1.34771484 -0.03673828 1.34771484 -0.03673828 2.72265625 -0.07421875 C6.72522546 -0.09195539 9.42112745 0.00151661 12.99609375 1.8984375 C15.78015267 5.13714091 17.52055056 8.51864098 19.3125 12.375 C19.82586914 13.44234375 19.82586914 13.44234375 20.34960938 14.53125 C20.9863586 15.85667751 21.61810884 17.18452817 22.24291992 18.515625 C23.17625749 20.48304789 24.14537472 22.43027038 25.125 24.375 C25.63885254 23.44433716 25.63885254 23.44433716 26.16308594 22.49487305 C27.72460807 19.67891408 29.29961087 16.87072273 30.875 14.0625 C31.41382813 13.08603516 31.95265625 12.10957031 32.5078125 11.10351562 C33.03632812 10.16572266 33.56484375 9.22792969 34.109375 8.26171875 C34.59116211 7.39764404 35.07294922 6.53356934 35.56933594 5.64331055 C37.23796979 3.21027898 38.57244453 1.84691155 41.125 0.375 C43.39916992 0.01855469 43.39916992 0.01855469 45.85546875 0.046875 C46.74041016 0.05203125 47.62535156 0.0571875 48.53710938 0.0625 C49.91092773 0.0934375 49.91092773 0.0934375 51.3125 0.125 C52.23998047 0.13015625 53.16746094 0.1353125 54.12304688 0.140625 C60.97077396 0.22077396 60.97077396 0.22077396 62.125 1.375 C62.01358142 7.61444054 60.38381197 10.97918853 56.78125 15.9921875 C55.13194671 18.36500591 53.78205173 20.75628828 52.4375 23.3125 C49.16510884 29.46354542 45.50445312 35.35963054 41.81958008 41.26928711 C41.35704834 42.01573486 40.8945166 42.76218262 40.41796875 43.53125 C40.0005542 44.19962891 39.58313965 44.86800781 39.15307617 45.55664062 C37.0892703 49.20689618 37.02773586 52.14633166 37.09765625 56.25 C37.10990234 57.39984375 37.12214844 58.5496875 37.13476562 59.734375 C37.16992274 62.16151805 37.20898554 64.58860766 37.25195312 67.015625 C37.26291016 68.16546875 37.27386719 69.3153125 37.28515625 70.5 C37.30199463 71.55445312 37.31883301 72.60890625 37.33618164 73.6953125 C37.125 76.375 37.125 76.375 35.125 79.375 C33.09375 79.76318359 33.09375 79.76318359 30.625 79.7734375 C29.2946875 79.77923828 29.2946875 79.77923828 27.9375 79.78515625 C26.5453125 79.76775391 26.5453125 79.76775391 25.125 79.75 C24.196875 79.76160156 23.26875 79.77320312 22.3125 79.78515625 C20.9821875 79.77935547 20.9821875 79.77935547 19.625 79.7734375 C18.8103125 79.77005371 17.995625 79.76666992 17.15625 79.76318359 C16.15078125 79.57103271 16.15078125 79.57103271 15.125 79.375 C12.78416838 75.86375257 12.88519892 74.4237867 12.88671875 70.2734375 C12.87060547 69.06042969 12.85449219 67.84742187 12.83789062 66.59765625 C12.82111854 64.05603959 12.81569462 61.51431976 12.82226562 58.97265625 C12.6904495 50.91911617 11.61428554 45.99402952 7.125 39.375 C5.97736947 37.42042855 4.84139559 35.45898346 3.71484375 33.4921875 C2.49835277 31.41089872 1.28088983 29.33017776 0.0625 27.25 C-2.25256862 23.29315985 -4.56497402 19.33478583 -6.875 15.375 C-7.2973291 14.65594482 -7.7196582 13.93688965 -8.15478516 13.19604492 C-10.2101619 9.66421167 -11.72458916 6.30557037 -12.875 2.375 C-8.63018332 -0.45487779 -4.9919703 0.00710095 0 0 Z " fill="#252525" transform="translate(487.875,10.625)"/>
<path d="M0 0 C1.1713147 -0.00953201 2.34262939 -0.01906403 3.54943848 -0.02888489 C5.44792542 -0.02751778 5.44792542 -0.02751778 7.38476562 -0.02612305 C8.68297241 -0.03040817 9.9811792 -0.0346933 11.31872559 -0.03910828 C14.06587813 -0.04656735 16.81290215 -0.04628123 19.56005859 -0.04101562 C23.08095102 -0.03521648 26.60131817 -0.05216344 30.12212372 -0.0753603 C33.48052672 -0.09362937 36.83881315 -0.08991268 40.19726562 -0.08862305 C41.46292358 -0.09783279 42.72858154 -0.10704254 44.03259277 -0.11653137 C45.78956482 -0.10718819 45.78956482 -0.10718819 47.58203125 -0.09765625 C48.61444946 -0.09828568 49.64686768 -0.0989151 50.71057129 -0.0995636 C53.29101562 0.2746582 53.29101562 0.2746582 55.12512207 1.56526184 C57.13343523 4.50978727 56.67942209 7.90314983 56.60351562 11.3371582 C56.60673828 12.06999023 56.60996094 12.80282227 56.61328125 13.55786133 C56.55823501 19.00743882 56.55823501 19.00743882 54.29101562 21.2746582 C52.41162109 21.59350586 52.41162109 21.59350586 50.15820312 21.6887207 C49.35253906 21.72739258 48.546875 21.76606445 47.71679688 21.8059082 C46.45416016 21.85231445 46.45416016 21.85231445 45.16601562 21.8996582 C44.31652344 21.93833008 43.46703125 21.97700195 42.59179688 22.0168457 C40.49189879 22.11122315 38.39148672 22.19403406 36.29101562 22.2746582 C36.28070816 22.95926117 36.2704007 23.64386414 36.25978088 24.34921265 C36.15186883 31.45401866 36.03725869 38.55869389 35.91870117 45.66333008 C35.87530315 48.31727369 35.83363175 50.9712461 35.79370117 53.62524414 C35.73611638 57.43294978 35.67238813 61.24050976 35.60742188 65.0480957 C35.58235313 66.83719864 35.58235313 66.83719864 35.55677795 68.66244507 C35.53683273 69.76343536 35.51688751 70.86442566 35.49633789 71.9987793 C35.48079361 72.97140717 35.46524933 73.94403503 35.44923401 74.94613647 C35.29101562 77.2746582 35.29101562 77.2746582 34.29101562 79.2746582 C30.99951438 79.36151108 27.70830603 79.41499715 24.41601562 79.4621582 C23.47886719 79.48729492 22.54171875 79.51243164 21.57617188 79.53833008 C20.68027344 79.54799805 19.784375 79.55766602 18.86132812 79.56762695 C18.03391113 79.5833374 17.20649414 79.59904785 16.35400391 79.61523438 C15.67321777 79.50284424 14.99243164 79.3904541 14.29101562 79.2746582 C12.04669612 75.90817895 12.04596403 74.81843174 12.06396484 70.88525391 C12.06411591 69.78433914 12.06426697 68.68342438 12.06442261 67.54914856 C12.07474518 66.36157455 12.08506775 65.17400055 12.09570312 63.95043945 C12.09853302 62.73390182 12.10136292 61.5173642 12.10427856 60.26396179 C12.1154896 56.37159462 12.14059615 52.47945604 12.16601562 48.5871582 C12.17604422 45.95109381 12.18517028 43.31502582 12.19335938 40.67895508 C12.21543196 34.21077789 12.24891874 27.74273438 12.29101562 21.2746582 C10.39416016 21.32686523 10.39416016 21.32686523 8.45898438 21.38012695 C6.7988414 21.40826497 5.13868407 21.43556512 3.47851562 21.4621582 C2.64513672 21.48729492 1.81175781 21.51243164 0.953125 21.53833008 C-0.25053711 21.55283203 -0.25053711 21.55283203 -1.47851562 21.56762695 C-2.58610229 21.59119263 -2.58610229 21.59119263 -3.71606445 21.61523438 C-6.30971014 21.17199834 -7.16246262 20.37802364 -8.70898438 18.2746582 C-9.00669814 15.4930776 -9.12814424 12.98686986 -9.08398438 10.2121582 C-9.09558594 9.47932617 -9.1071875 8.74649414 -9.11914062 7.99145508 C-9.10742188 5.86450195 -9.10742188 5.86450195 -8.70898438 2.2746582 C-5.28504919 -0.00796525 -4.02678567 0.01797041 0 0 Z " fill="#2F2F2F" transform="translate(319.708984375,10.725341796875)"/>
<path d="M0 0 C1.94381042 2.04976236 2.50036597 3.20299699 2.86328125 5.96484375 C2.17234375 6.51527344 1.48140625 7.06570312 0.76953125 7.6328125 C-1.26617004 9.26629861 -3.28317728 10.91369003 -5.29296875 12.578125 C-6.40701158 13.47853374 -7.52160232 14.37826496 -8.63671875 15.27734375 C-9.19230469 15.74462891 -9.74789062 16.21191406 -10.3203125 16.69335938 C-12.87631991 18.7291441 -14.45181907 19.97797604 -17.78515625 19.9140625 C-20.15584559 18.95712311 -22.14352982 17.89358295 -24.26171875 16.46484375 C-29.79391291 12.76236361 -34.58833713 12.31000559 -41.13671875 12.96484375 C-47.50055411 14.56088553 -51.38373992 17.52682037 -54.984375 22.97265625 C-59.06494491 30.02720085 -59.23461128 38.09096246 -57.4609375 45.96484375 C-56.75231374 48.32916188 -55.99648969 50.65165052 -55.13671875 52.96484375 C-54.47671875 52.96484375 -53.81671875 52.96484375 -53.13671875 52.96484375 C-51.44797996 54.60914204 -49.7836636 56.27868593 -48.13671875 57.96484375 C-46.82495889 58.99297986 -45.49972945 60.00568807 -44.13671875 60.96484375 C-48.64436545 60.43453237 -51.55626663 58.71263259 -55.13671875 55.96484375 C-55.13671875 55.30484375 -55.13671875 54.64484375 -55.13671875 53.96484375 C-56.45671875 53.63484375 -57.77671875 53.30484375 -59.13671875 52.96484375 C-59.46671875 50.65484375 -59.79671875 48.34484375 -60.13671875 45.96484375 C-60.79671875 45.96484375 -61.45671875 45.96484375 -62.13671875 45.96484375 C-62.13671875 44.97484375 -62.13671875 43.98484375 -62.13671875 42.96484375 C-63.12671875 42.96484375 -64.11671875 42.96484375 -65.13671875 42.96484375 C-68.2857936 39.07481011 -69.66322675 35.93650979 -70.13671875 30.96484375 C-70.79671875 30.96484375 -71.45671875 30.96484375 -72.13671875 30.96484375 C-74.87649208 22.82706462 -75.50413214 15.52421504 -75.13671875 6.96484375 C-75.79671875 6.96484375 -76.45671875 6.96484375 -77.13671875 6.96484375 C-77.38421875 7.74859375 -77.63171875 8.53234375 -77.88671875 9.33984375 C-79.13671875 12.96484375 -79.13671875 12.96484375 -80.125 14.921875 C-83.99442125 22.95620058 -83.59105788 30.90928622 -83.38671875 39.58984375 C-83.36661116 41.08591343 -83.34836796 42.58200939 -83.33203125 44.078125 C-83.2883999 47.70758613 -83.21961178 51.33604194 -83.13671875 54.96484375 C-87.56227148 50.53929102 -86.3200328 42.56709205 -86.32421875 36.65234375 C-86.33646484 35.75322266 -86.34871094 34.85410156 -86.36132812 33.92773438 C-86.37931282 25.63679123 -85.38643327 18.42936033 -81.19921875 11.15234375 C-80.69519531 10.25902344 -80.19117187 9.36570312 -79.671875 8.4453125 C-78.2594729 6.16318696 -76.88193119 4.00488772 -75.13671875 1.96484375 C-74.47671875 1.96484375 -73.81671875 1.96484375 -73.13671875 1.96484375 C-73.13671875 1.30484375 -73.13671875 0.64484375 -73.13671875 -0.03515625 C-51.43216323 -17.61986558 -21.65955692 -17.44509768 0 0 Z " fill="#922B8F" transform="translate(164.13671875,14.03515625)"/>
<path d="M0 0 C1.19012695 0.00773438 1.19012695 0.00773438 2.40429688 0.015625 C3.64083008 0.0465625 3.64083008 0.0465625 4.90234375 0.078125 C5.73056641 0.08328125 6.55878906 0.0884375 7.41210938 0.09375 C13.53039826 0.17340226 13.53039826 0.17340226 15.83984375 1.328125 C16.98575096 5.287942 16.97233186 9.17362847 16.98510742 13.27392578 C16.98846603 13.95258698 16.99182465 14.63124817 16.99528503 15.33047485 C17.00474219 17.56148128 17.00673505 19.79241232 17.0078125 22.0234375 C17.01102715 23.57852204 17.01439138 25.13360628 17.01789856 26.68869019 C17.02387557 29.94171857 17.02573977 33.19472042 17.02514648 36.44775391 C17.02504458 40.61863629 17.03873203 44.78934952 17.05591869 48.96019173 C17.06702439 52.1686176 17.06906619 55.37700227 17.06853676 58.5854454 C17.06971768 60.12365175 17.07414572 61.66185913 17.08186913 63.20004654 C17.09164651 65.34719075 17.08880084 67.49396333 17.08276367 69.64111328 C17.08418869 70.8629129 17.08561371 72.08471252 17.08708191 73.34353638 C16.83984375 76.328125 16.83984375 76.328125 14.83984375 79.328125 C12.80859375 79.70043945 12.80859375 79.70043945 10.33984375 79.69140625 C9.45296875 79.69076172 8.56609375 79.69011719 7.65234375 79.68945312 C6.26015625 79.6652832 6.26015625 79.6652832 4.83984375 79.640625 C3.91171875 79.64384766 2.98359375 79.64707031 2.02734375 79.65039062 C-4.89321486 79.59506639 -4.89321486 79.59506639 -7.16015625 77.328125 C-7.42085266 74.29847717 -7.42085266 74.29847717 -7.43481445 70.35571289 C-7.43992538 69.63847549 -7.44503632 68.9212381 -7.45030212 68.18226624 C-7.46423254 65.80502031 -7.46323877 63.4280632 -7.4609375 61.05078125 C-7.46482265 59.40172721 -7.46915694 57.75267417 -7.47392273 56.10362244 C-7.48139243 52.64432535 -7.48108834 49.1851303 -7.47583008 45.72583008 C-7.47003547 41.28909138 -7.48696236 36.85277015 -7.51017475 32.4161005 C-7.52489522 29.00949148 -7.52578609 25.60298338 -7.52266502 22.19634819 C-7.52317912 20.56045136 -7.52843345 18.92454901 -7.53847694 17.28868294 C-7.55079127 15.00215539 -7.54408046 12.71644575 -7.5324707 10.42993164 C-7.53310013 9.12802383 -7.53372955 7.82611603 -7.53437805 6.48475647 C-7.16015625 3.328125 -7.16015625 3.328125 -5.75946045 1.40653992 C-3.71228824 0.02612646 -2.45797503 -0.03165595 0 0 Z " fill="#2E2E2E" transform="translate(389.16015625,10.671875)"/>
<path d="M0 0 C0.99 0 1.98 0 3 0 C3 0.66 3 1.32 3 2 C2.34 2 1.68 2 1 2 C0.34 5.3 -0.32 8.6 -1 12 C-1.66 12 -2.32 12 -3 12 C-3.21462891 13.07701172 -3.21462891 13.07701172 -3.43359375 14.17578125 C-3.79272391 15.96647855 -4.15904641 17.75576068 -4.53515625 19.54296875 C-5.77867967 25.77900844 -6.24804132 31.64738623 -6 38 C-7.32 38.66 -8.64 39.32 -10 40 C-10 42.31 -10 44.62 -10 47 C-14.55216446 42.94348668 -16.72429283 37.12609518 -17.25390625 31.12109375 C-17.25051007 28.73358041 -17.18230217 26.3800561 -17 24 C-17.66 24 -18.32 24 -19 24 C-18.09577155 32.61041423 -16.42455259 39.51879086 -12 47 C-12.66 47.66 -13.32 48.32 -14 49 C-17 42.25 -17 42.25 -17 40 C-17.66 40 -18.32 40 -19 40 C-21.73977333 31.86222087 -22.36741339 24.55937129 -22 16 C-22.66 16 -23.32 16 -24 16 C-24.2475 16.78375 -24.495 17.5675 -24.75 18.375 C-26 22 -26 22 -26.98828125 23.95703125 C-30.8577025 31.99135683 -30.45433913 39.94444247 -30.25 48.625 C-30.22989241 50.12106968 -30.21164921 51.61716564 -30.1953125 53.11328125 C-30.15168115 56.74274238 -30.08289303 60.37119819 -30 64 C-34.42555273 59.57444727 -33.18331405 51.6022483 -33.1875 45.6875 C-33.19974609 44.78837891 -33.21199219 43.88925781 -33.22460938 42.96289062 C-33.24259407 34.67194748 -32.24971452 27.46451658 -28.0625 20.1875 C-27.55847656 19.29417969 -27.05445312 18.40085937 -26.53515625 17.48046875 C-23.47721311 12.53951737 -21.32716387 10.49356607 -16 8 C-15.34 7.34 -14.68 6.68 -14 6 C-11.66371161 5.62276444 -9.35695314 5.494845 -6.99609375 5.34375 C-6.33738281 5.2303125 -5.67867187 5.116875 -5 5 C-4.67 4.34 -4.34 3.68 -4 3 C-3.01 3 -2.02 3 -1 3 C-0.67 2.01 -0.34 1.02 0 0 Z " fill="#A32771" transform="translate(111,5)"/>
<path d="M0 0 C1.32 0 2.64 0 4 0 C4 0.66 4 1.32 4 2 C4.70125 1.79375 5.4025 1.5875 6.125 1.375 C12.7716905 0.50804037 17.11626625 4.32459778 22.14453125 8.1484375 C24.13498011 10.13469594 24.63106657 11.25416762 25 14 C21.24219282 17.3023154 17.57739391 19.05036926 13 21 C12.484375 21.53625 11.96875 22.0725 11.4375 22.625 C9.25539636 24.71222956 6.91792424 24.6757862 4 25 C3.5875 24.360625 3.175 23.72125 2.75 23.0625 C0.41504964 20.31059422 -1.51375242 20.15147046 -5.01464844 19.79467773 C-5.7059082 19.75802002 -6.39716797 19.7213623 -7.109375 19.68359375 C-7.86347656 19.64169922 -8.61757812 19.59980469 -9.39453125 19.55664062 C-10.56048828 19.49766602 -10.56048828 19.49766602 -11.75 19.4375 C-12.54277344 19.39431641 -13.33554688 19.35113281 -14.15234375 19.30664062 C-16.10137815 19.20097009 -18.05066748 19.10002034 -20 19 C-20.66 17.68 -21.32 16.36 -22 15 C-20.88625 14.7525 -19.7725 14.505 -18.625 14.25 C-14.95708592 13.44955268 -14.95708592 13.44955268 -14.00390625 11.09375 C-13.67261719 10.4028125 -13.34132812 9.711875 -13 9 C-9.45914763 5.90684161 -5.78020496 3.67776435 -1 3.6875 C-0.01 3.790625 0.98 3.89375 2 4 C2 3.01 2 2.02 2 1 C1.34 0.67 0.68 0.34 0 0 Z " fill="#6F3E93" transform="translate(142,6)"/>
<path d="M0 0 C0.66 0 1.32 0 2 0 C2.01417969 0.58265625 2.02835937 1.1653125 2.04296875 1.765625 C2.47751782 9.23517109 4.86071288 15.25806234 8 22 C8.1546875 20.576875 8.1546875 20.576875 8.3125 19.125 C9 16 9 16 12 14 C12.32709536 11.43357232 12.32709536 11.43357232 12.125 8.5625 C11.99252403 5.24618499 11.94156453 3.17530642 13 0 C13.99 0.33 14.98 0.66 16 1 C16 1.99 16 2.98 16 4 C16.66 4 17.32 4 18 4 C18 3.34 18 2.68 18 2 C19.32 1.67 20.64 1.34 22 1 C21.50628906 1.74765625 21.01257813 2.4953125 20.50390625 3.265625 C19.86324219 4.25046875 19.22257812 5.2353125 18.5625 6.25 C17.92441406 7.22453125 17.28632812 8.1990625 16.62890625 9.203125 C12.83349407 15.71994783 13.05520661 23.7704017 14.671875 31.0078125 C15.38461415 33.36792043 16.14119719 35.6894115 17 38 C17.66 38 18.32 38 19 38 C20.68873879 39.64429829 22.35305515 41.31384218 24 43 C25.31175986 44.02813611 26.6369893 45.04084432 28 46 C23.4923533 45.46968862 20.58045212 43.74778884 17 41 C17 40.34 17 39.68 17 39 C15.68 38.67 14.36 38.34 13 38 C12.67 35.69 12.34 33.38 12 31 C11.34 31 10.68 31 10 31 C10 30.01 10 29.02 10 28 C9.01 28 8.02 28 7 28 C6.7525 27.01 6.505 26.02 6.25 25 C5.46695703 22.17203186 4.41576605 19.90149107 2.9375 17.375 C0.05772122 11.95801835 0.18341385 6.0159742 0 0 Z " fill="#8C0B58" transform="translate(92,29)"/>
<path d="M0 0 C8.58 0 17.16 0 26 0 C27.93345174 3.86690348 28.27292504 5.30526181 28.25 9.4375 C28.25773437 10.82775391 28.25773437 10.82775391 28.265625 12.24609375 C27.98105752 15.19638893 27.3249202 17.35482482 26 20 C23.39048764 21.30475618 21.47298715 21.11301572 18.5546875 21.09765625 C17.47832031 21.09443359 16.40195312 21.09121094 15.29296875 21.08789062 C14.16503906 21.07951172 13.03710938 21.07113281 11.875 21.0625 C10.73933594 21.05798828 9.60367187 21.05347656 8.43359375 21.04882812 C5.62234362 21.03701615 2.8111977 21.02054507 0 21 C0.01047363 21.71655762 0.02094727 22.43311523 0.03173828 23.17138672 C0.07321299 26.40588905 0.09929892 29.64033553 0.125 32.875 C0.14175781 34.00292969 0.15851563 35.13085938 0.17578125 36.29296875 C0.18222656 37.36933594 0.18867188 38.44570312 0.1953125 39.5546875 C0.20578613 40.54968262 0.21625977 41.54467773 0.22705078 42.56982422 C0 45 0 45 -2 47 C-3.97119141 47.22705078 -3.97119141 47.22705078 -6.3515625 47.1953125 C-7.20234375 47.18886719 -8.053125 47.18242188 -8.9296875 47.17578125 C-9.81914062 47.15902344 -10.70859375 47.14226562 -11.625 47.125 C-12.97078125 47.11146484 -12.97078125 47.11146484 -14.34375 47.09765625 C-16.56276586 47.0740497 -18.78125077 47.0411231 -21 47 C-21.33 46.34 -21.66 45.68 -22 45 C-15.73 45 -9.46 45 -3 45 C-2.93941406 43.20691406 -2.87882812 41.41382813 -2.81640625 39.56640625 C-2.73202151 37.23176176 -2.64737249 34.89712681 -2.5625 32.5625 C-2.52318359 31.37849609 -2.48386719 30.19449219 -2.44335938 28.97460938 C-2.40146484 27.84990234 -2.35957031 26.72519531 -2.31640625 25.56640625 C-2.27974854 24.52427979 -2.24309082 23.48215332 -2.20532227 22.40844727 C-2 20 -2 20 -1 19 C0.92478813 18.84193469 2.8549921 18.748865 4.78515625 18.68359375 C5.95498047 18.64169922 7.12480469 18.59980469 8.33007812 18.55664062 C10.17762695 18.49766602 10.17762695 18.49766602 12.0625 18.4375 C13.91584961 18.37272461 13.91584961 18.37272461 15.80664062 18.30664062 C18.87094841 18.20015889 21.93545885 18.09953935 25 18 C25 12.72 25 7.44 25 2 C16.75 1.67 8.5 1.34 0 1 C0 0.67 0 0.34 0 0 Z " fill="#A5A4A5" transform="translate(435,43)"/>
<path d="M0 0 C0.99 0.33 1.98 0.66 3 1 C4.125 3.5 4.125 3.5 5 6 C5.33 6.33 5.66 6.66 6 7 C6.15873955 9.21687994 6.25133837 11.43855298 6.31640625 13.66015625 C6.33718735 14.32462265 6.35796844 14.98908905 6.37937927 15.6736908 C6.44493658 17.80318543 6.50378785 19.93280668 6.5625 22.0625 C6.60567939 23.50326847 6.64929349 24.94402399 6.69335938 26.38476562 C6.80144527 29.92304903 6.90047093 33.46142397 7 37 C13.27 37 19.54 37 26 37 C25.95359375 34.95296875 25.9071875 32.9059375 25.859375 30.796875 C25.83155577 28.80779973 25.80388048 26.81871957 25.78027344 24.82958984 C25.76019358 23.4502332 25.73292334 22.07096131 25.69824219 20.69189453 C25.64957183 18.70643021 25.62913582 16.72033746 25.609375 14.734375 C25.58842773 13.54038086 25.56748047 12.34638672 25.54589844 11.11621094 C26.08373537 7.42537726 27.13548192 6.2896321 30 4 C29.67257812 4.86278564 29.34515625 5.72557129 29.0078125 6.61450195 C27.98875925 10.03776054 27.79564426 12.61542148 27.875 16.16796875 C27.89046875 17.30814453 27.9059375 18.44832031 27.921875 19.62304688 C27.94765625 20.79931641 27.9734375 21.97558594 28 23.1875 C28.05094896 25.53497315 28.09303891 27.88266031 28.125 30.23046875 C28.14820313 31.26582764 28.17140625 32.30118652 28.1953125 33.36791992 C28 36 28 36 26 39 C23.96875 39.38818359 23.96875 39.38818359 21.5 39.3984375 C20.1696875 39.40423828 20.1696875 39.40423828 18.8125 39.41015625 C17.884375 39.39855469 16.95625 39.38695312 16 39.375 C14.6078125 39.39240234 14.6078125 39.39240234 13.1875 39.41015625 C12.300625 39.40628906 11.41375 39.40242188 10.5 39.3984375 C9.6853125 39.39505371 8.870625 39.39166992 8.03125 39.38818359 C7.3609375 39.26008301 6.690625 39.13198242 6 39 C3.6560254 35.48403811 3.73726163 33.95621752 3.69140625 29.79296875 C3.65370117 27.9531543 3.65370117 27.9531543 3.61523438 26.07617188 C3.5802377 23.4954908 3.54895331 20.91475656 3.52148438 18.33398438 C3.49505859 17.10357422 3.46863281 15.87316406 3.44140625 14.60546875 C3.42795166 13.48293701 3.41449707 12.36040527 3.40063477 11.20385742 C2.94985138 7.59896387 1.72167864 5.17130294 0 2 C0 1.34 0 0.68 0 0 Z " fill="#A6A5A6" transform="translate(497,51)"/>
<path d="M0 0 C0.66 0.33 1.32 0.66 2 1 C0.28699008 2.53900891 -1.44607488 4.05571869 -3.1875 5.5625 C-4.63189453 6.83287109 -4.63189453 6.83287109 -6.10546875 8.12890625 C-9 10 -9 10 -11.60546875 9.93359375 C-14.01077879 8.9957975 -15.98673666 7.94227959 -18.125 6.5 C-23.66756302 2.79058039 -28.44656273 2.43504851 -35 3 C-38.09727859 3.78342929 -41.0411904 4.79932364 -44 6 C-41.375 2.125 -41.375 2.125 -38 1 C-36.15389468 0.91760831 -34.30494836 0.89256641 -32.45703125 0.90234375 C-31.38388672 0.90556641 -30.31074219 0.90878906 -29.20507812 0.91210938 C-28.08552734 0.92048828 -26.96597656 0.92886719 -25.8125 0.9375 C-24.11577148 0.94426758 -24.11577148 0.94426758 -22.38476562 0.95117188 C-19.58979073 0.96296502 -16.7949218 0.9794235 -14 1 C-13.67 2.32 -13.34 3.64 -13 5 C-11.25328412 5.79356801 -11.25328412 5.79356801 -9 6 C-5.72636167 4.36318083 -2.88423694 2.2432954 0 0 Z " fill="#BDA9C9" transform="translate(158,24)"/>
<path d="M0 0 C0 0.33 0 0.66 0 1 C-0.82201904 0.98952637 -1.64403809 0.97905273 -2.4909668 0.96826172 C-6.22311331 0.92663241 -9.9552109 0.90065147 -13.6875 0.875 C-14.98107422 0.85824219 -16.27464844 0.84148437 -17.60742188 0.82421875 C-18.85458984 0.81777344 -20.10175781 0.81132813 -21.38671875 0.8046875 C-22.53358154 0.79421387 -23.68044434 0.78374023 -24.86206055 0.77294922 C-28.02387216 1.00172731 -30.194328 1.54728468 -33 3 C-33.33 3.66 -33.66 4.32 -34 5 C-34.99 5 -35.98 5 -37 5 C-37.33 5.99 -37.66 6.98 -38 8 C-38.88751953 8.03867187 -38.88751953 8.03867187 -39.79296875 8.078125 C-45.0720013 8.45704414 -48.10636661 9.10636661 -52 13 C-52.33 12.34 -52.66 11.68 -53 11 C-36.33476581 -0.5730793 -20.13372059 -4.98888652 0 0 Z " fill="#E6D7E4" transform="translate(144,3)"/>
<path d="M0 0 C0.66 0 1.32 0 2 0 C2.12375 0.639375 2.2475 1.27875 2.375 1.9375 C2.684375 2.9584375 2.684375 2.9584375 3 4 C3.66 4.33 4.32 4.66 5 5 C6.0194119 5.98020375 7.02246356 6.97803008 8 8 C8.99 7.34 9.98 6.68 11 6 C13.1875 6.375 13.1875 6.375 15 7 C6.738041 12.37129841 6.738041 12.37129841 2 14 C2 14.66 2 15.32 2 16 C1.34 16 0.68 16 0 16 C-2.3393848 12.34471125 -2.29928196 9.26476789 -2 5 C-1 2.0625 -1 2.0625 0 0 Z " fill="#8E2E89" transform="translate(108,17)"/>
<path d="M0 0 C1.70840281 1.63412443 2.93453047 2.86906094 4 5 C4.99 5 5.98 5 7 5 C8.75 7.3125 8.75 7.3125 10 10 C9.67 10.99 9.34 11.98 9 13 C9.08571661 15.09291157 9.08571661 15.09291157 10 17 C12.80418788 18.72512162 15.06322381 19.27413816 18.328125 19.4140625 C19.12734375 19.45273438 19.9265625 19.49140625 20.75 19.53125 C21.9875 19.57765625 21.9875 19.57765625 23.25 19.625 C24.09046875 19.66367188 24.9309375 19.70234375 25.796875 19.7421875 C27.86423382 19.83615836 29.93208627 19.91915564 32 20 C32 17.69 32 15.38 32 13 C34 16 34 16 33.625 18.6875 C33.41875 19.450625 33.2125 20.21375 33 21 C29.60462148 21.14575327 26.21005098 21.23421542 22.8125 21.3125 C21.85279297 21.35439453 20.89308594 21.39628906 19.90429688 21.43945312 C12.79797123 21.56239994 12.79797123 21.56239994 9.0625 18.9296875 C6.76227038 15.66231588 4.89408957 12.41781175 3.1875 8.8125 C2.87619141 8.18408203 2.56488281 7.55566406 2.24414062 6.90820312 C0 2.29661745 0 2.29661745 0 0 Z " fill="#8F8F90" transform="translate(270,69)"/>
<path d="M0 0 C1.32 0 2.64 0 4 0 C4 0.66 4 1.32 4 2 C5.65 1.67 7.3 1.34 9 1 C8.34 1.66 7.68 2.32 7 3 C5.68 3 4.36 3 3 3 C3 3.66 3 4.32 3 5 C1.35 5 -0.3 5 -2 5 C-2 5.66 -2 6.32 -2 7 C-3.32 7 -4.64 7 -6 7 C-6 7.66 -6 8.32 -6 9 C-7.65848177 10.01351664 -9.32665961 11.01120795 -11 12 C-12.36984198 13.29579647 -13.7151049 14.61992749 -15 16 C-13.02 16.66 -11.04 17.32 -9 18 C-9 18.33 -9 18.66 -9 19 C-12.63 19 -16.26 19 -20 19 C-20.66 17.68 -21.32 16.36 -22 15 C-20.88625 14.7525 -19.7725 14.505 -18.625 14.25 C-14.95708592 13.44955268 -14.95708592 13.44955268 -14.00390625 11.09375 C-13.67261719 10.4028125 -13.34132812 9.711875 -13 9 C-9.45914763 5.90684161 -5.78020496 3.67776435 -1 3.6875 C-0.01 3.790625 0.98 3.89375 2 4 C2 3.01 2 2.02 2 1 C1.34 0.67 0.68 0.34 0 0 Z " fill="#843694" transform="translate(142,6)"/>
<path d="M0 0 C0.99 0.33 1.98 0.66 3 1 C3 1.99 3 2.98 3 4 C3.66 4 4.32 4 5 4 C5 3.34 5 2.68 5 2 C6.32 1.67 7.64 1.34 9 1 C8.50628906 1.74765625 8.01257813 2.4953125 7.50390625 3.265625 C6.86324219 4.25046875 6.22257812 5.2353125 5.5625 6.25 C4.92441406 7.22453125 4.28632812 8.1990625 3.62890625 9.203125 C0.75524315 14.13728034 0.87307643 18.64019402 0.9375 24.25 C0.94201172 24.99507812 0.94652344 25.74015625 0.95117188 26.5078125 C0.96290754 28.3385764 0.9808415 30.16929873 1 32 C-1.30845181 28.53732229 -1.24636502 27.2044191 -1.23046875 23.125 C-1.22756836 21.40023437 -1.22756836 21.40023437 -1.22460938 19.640625 C-1.21236328 18.43921875 -1.20011719 17.2378125 -1.1875 16 C-1.18685547 14.79859375 -1.18621094 13.5971875 -1.18554688 12.359375 C-1.14045603 3.4213681 -1.14045603 3.4213681 0 0 Z " fill="#C892BA" transform="translate(105,29)"/>
<path d="M0 0 C4.12486838 -0.08676908 8.24950384 -0.14031295 12.375 -0.1875 C13.550625 -0.21263672 14.72625 -0.23777344 15.9375 -0.26367188 C17.61972656 -0.27817383 17.61972656 -0.27817383 19.3359375 -0.29296875 C20.37282715 -0.3086792 21.4097168 -0.32438965 22.47802734 -0.34057617 C23.31027832 -0.22818604 24.1425293 -0.1157959 25 0 C27.28062828 3.42094242 27.21925007 4.68187222 27.125 8.6875 C27.10695312 9.68136719 27.08890625 10.67523438 27.0703125 11.69921875 C27.04710937 12.45847656 27.02390625 13.21773437 27 14 C26.67 14 26.34 14 26 14 C25.67 11.03 25.34 8.06 25 5 C24.95101562 5.78246094 24.90203125 6.56492187 24.8515625 7.37109375 C24.77679688 8.38300781 24.70203125 9.39492188 24.625 10.4375 C24.55539063 11.44683594 24.48578125 12.45617187 24.4140625 13.49609375 C24.27742188 14.32238281 24.14078125 15.14867187 24 16 C23.34 16.33 22.68 16.66 22 17 C22 12.71 22 8.42 22 4 C21.01 3.67 20.02 3.34 19 3 C19 2.34 19 1.68 19 1 C12.73 1 6.46 1 0 1 C0 0.67 0 0.34 0 0 Z " fill="#302F30" transform="translate(197,41)"/>
<path d="M0 0 C0.66 0 1.32 0 2 0 C2.391875 0.969375 2.78375 1.93875 3.1875 2.9375 C4.67594887 6.22176391 4.67594887 6.22176391 7.6875 6.875 C8.8321875 6.936875 8.8321875 6.936875 10 7 C10.79953138 10.28696233 11.09658936 11.71023192 10 15 C11.24462788 17.50259479 11.24462788 17.50259479 13 20.0625 C14.75 22.72265625 14.75 22.72265625 16 25 C15.67 25.66 15.34 26.32 15 27 C11.48176211 21.42195931 8.04752169 15.79970329 4.6875 10.125 C4.23310547 9.36703125 3.77871094 8.6090625 3.31054688 7.828125 C2.66762695 6.74144531 2.66762695 6.74144531 2.01171875 5.6328125 C1.62459717 4.98199707 1.23747559 4.33118164 0.83862305 3.66064453 C0 2 0 2 0 0 Z " fill="#8E8D8D" transform="translate(481,24)"/>
<path d="M0 0 C0.66 0 1.32 0 2 0 C2.04898438 0.81082031 2.09796875 1.62164063 2.1484375 2.45703125 C2.64162798 9.76135227 3.52007561 16.83026922 5 24 C5.66 24 6.32 24 7 24 C7.66 26.64 8.32 29.28 9 32 C8.01 31.67 7.02 31.34 6 31 C6 30.01 6 29.02 6 28 C5.34 28 4.68 28 4 28 C4 26.68 4 25.36 4 24 C3.34 24 2.68 24 2 24 C0.56205146 15.92437827 -0.29599372 8.2056037 0 0 Z " fill="#361329" transform="translate(87,21)"/>
<path d="M0 0 C0.66 0 1.32 0 2 0 C2.15855469 0.96679688 2.31710938 1.93359375 2.48046875 2.9296875 C3.89655128 11.00748772 5.75054181 17.86158209 10 25 C9.34 25.66 8.68 26.32 8 27 C5 20.25 5 20.25 5 18 C4.34 18 3.68 18 3 18 C1.14256832 11.88595404 -0.42765417 6.41481258 0 0 Z " fill="#661A48" transform="translate(89,27)"/>
<path d="M0 0 C-0.33 0.99 -0.66 1.98 -1 3 C-1.66 3 -2.32 3 -3 3 C-3 9.6 -3 16.2 -3 23 C-5.10814567 18.78370866 -5.17700355 16.60209225 -5 12 C-5.66 12 -6.32 12 -7 12 C-8.45904173 5.79907264 -8.45904173 5.79907264 -6.3125 2.0625 C-4 0 -4 0 0 0 Z " fill="#8B1B5D" transform="translate(96,15)"/>
<path d="M0 0 C0.99 0.495 0.99 0.495 2 1 C1.01 1.495 1.01 1.495 0 2 C0 1.34 0 0.68 0 0 Z M-2 2 C-1.34 2.33 -0.68 2.66 0 3 C-0.33 3.99 -0.66 4.98 -1 6 C-0.59167268 8.24580028 -0.02212951 9.95574098 1 12 C-0.45922693 11.88590407 -1.91740598 11.75834456 -3.375 11.625 C-4.18710938 11.55539063 -4.99921875 11.48578125 -5.8359375 11.4140625 C-8 11 -8 11 -10 9 C-9.360625 8.731875 -8.72125 8.46375 -8.0625 8.1875 C-5.66868314 7.11332248 -5.66868314 7.11332248 -5 4 C-4.01 3.34 -3.02 2.68 -2 2 Z " fill="#642B87" transform="translate(136,13)"/>
<path d="M0 0 C6.40808823 0 10.37069503 4.0599471 15 8 C14.01 8.495 14.01 8.495 13 9 C12.278125 8.34 11.55625 7.68 10.8125 7 C5.89646413 3.61948138 -0.31141418 4.69615862 -6 5 C-5.195625 4.360625 -4.39125 3.72125 -3.5625 3.0625 C-1.7249496 1.59396498 -1.7249496 1.59396498 0 0 Z " fill="#717171" transform="translate(145,68)"/>
<path d="M0 0 C-0.33 0.66 -0.66 1.32 -1 2 C-1.99 2 -2.98 2 -4 2 C-4.33 2.99 -4.66 3.98 -5 5 C-5.88751953 5.03867188 -5.88751953 5.03867188 -6.79296875 5.078125 C-12.0720013 5.45704414 -15.10636661 6.10636661 -19 10 C-19.33 9.34 -19.66 8.68 -20 8 C-4.57142857 -2.28571429 -4.57142857 -2.28571429 0 0 Z " fill="#BF85A8" transform="translate(111,6)"/>
<path d="M0 0 C0.66 0 1.32 0 2 0 C2.32374517 5.50366792 2.53286034 9.43672206 -1 14 C-3 11 -3 11 -2.75 7.5625 C-2.13121575 4.6232748 -1.52580857 2.54301429 0 0 Z " fill="#171815" transform="translate(86,23)"/>
<path d="M0 0 C0.66 0 1.32 0 2 0 C2 4.62 2 9.24 2 14 C1.34 14 0.68 14 0 14 C0 11.36 0 8.72 0 6 C-1.65 5.67 -3.3 5.34 -5 5 C-4 3 -4 3 -2 2 C-1.67 1.67 -1.34 1.34 -1 1 C-0.67 0.67 -0.34 0.34 0 0 Z " fill="#262525" transform="translate(373,15)"/>
<path d="M0 0 C3 3.75 3 3.75 3 6 C3.66 6 4.32 6 5 6 C6.68873879 7.64429829 8.35305515 9.31384218 10 11 C11.31175986 12.02813611 12.6369893 13.04084432 14 14 C9.4923533 13.46968862 6.58045212 11.74778884 3 9 C3 8.34 3 7.68 3 7 C1.68 6.67 0.36 6.34 -1 6 C-0.67 4.02 -0.34 2.04 0 0 Z " fill="#A2A0A2" transform="translate(106,61)"/>
<path d="M0 0 C0.33 0.66 0.66 1.32 1 2 C-0.1796875 4.3828125 -0.1796875 4.3828125 -1.875 7.125 C-2.70644531 8.49011719 -2.70644531 8.49011719 -3.5546875 9.8828125 C-4.03164063 10.58148438 -4.50859375 11.28015625 -5 12 C-5.33 12 -5.66 12 -6 12 C-6.33 9.69 -6.66 7.38 -7 5 C-6.360625 4.896875 -5.72125 4.79375 -5.0625 4.6875 C-4.381875 4.460625 -3.70125 4.23375 -3 4 C-2.67 3.01 -2.34 2.02 -2 1 C-1.34 0.67 -0.68 0.34 0 0 Z " fill="#777676" transform="translate(533,43)"/>
<path d="M0 0 C5.03668478 6.6392663 5.03668478 6.6392663 4.625 10.6875 C4.41875 11.780625 4.2125 12.87375 4 14 C2 13 2 13 0.875 10.375 C-0.05654649 6.78189212 -0.14783375 3.69584376 0 0 Z " fill="#5F5F5F" transform="translate(297,73)"/>
<path d="M0 0 C0.33 0 0.66 0 1 0 C1.06058594 0.95261719 1.12117188 1.90523437 1.18359375 2.88671875 C1.26738281 4.14097656 1.35117188 5.39523438 1.4375 6.6875 C1.51871094 7.92886719 1.59992188 9.17023437 1.68359375 10.44921875 C1.94491317 13.38180337 2.34798379 16.13441617 3 19 C2.34 18.67 1.68 18.34 1 18 C1 17.34 1 16.68 1 16 C0.34 16 -0.32 16 -1 16 C-1 15.01 -1 14.02 -1 13 C-1.99 13 -2.98 13 -4 13 C-4.33 12.01 -4.66 11.02 -5 10 C-4.34 10 -3.68 10 -3 10 C-3 10.66 -3 11.32 -3 12 C-2.34 11.67 -1.68 11.34 -1 11 C-0.5316735 8.41394668 -0.5316735 8.41394668 -0.375 5.4375 C-0.30023438 4.42558594 -0.22546875 3.41367187 -0.1484375 2.37109375 C-0.09945312 1.58863281 -0.05046875 0.80617187 0 0 Z " fill="#8E4A73" transform="translate(103,44)"/>
<path d="M0 0 C0.66 0 1.32 0 2 0 C1.67 3.96 1.34 7.92 1 12 C0.01 12 -0.98 12 -2 12 C-2.17835515 7.45194365 -1.99785435 4.1205746 0 0 Z " fill="#A12183" transform="translate(108,17)"/>
<path d="M0 0 C4.95 0 9.9 0 15 0 C15 0.99 15 1.98 15 3 C12.03 3 9.06 3 6 3 C6 2.34 6 1.68 6 1 C4.02 1 2.04 1 0 1 C0 0.67 0 0.34 0 0 Z " fill="#872E84" transform="translate(126,4)"/>
<path d="M0 0 C0.99 0.33 1.98 0.66 3 1 C2.34 1.66 1.68 2.32 1 3 C1.99 3.66 2.98 4.32 4 5 C4 5.66 4 6.32 4 7 C5.32 7.66 6.64 8.32 8 9 C2.55791766 8.65986985 -0.93668198 5.29703472 -5 2 C-4.360625 1.855625 -3.72125 1.71125 -3.0625 1.5625 C-1.02454854 1.18992819 -1.02454854 1.18992819 0 0 Z " fill="#959494" transform="translate(98,86)"/>
<path d="M0 0 C0.33 0.66 0.66 1.32 1 2 C3.02463255 2.65213292 3.02463255 2.65213292 5 3 C6 9.625 6 9.625 6 13 C0 5.8 0 5.8 0 0 Z " fill="#949393" transform="translate(81,69)"/>
<path d="M0 0 C0 0.66 0 1.32 0 2 C2.31 2.33 4.62 2.66 7 3 C7 3.33 7 3.66 7 4 C3.37 4 -0.26 4 -4 4 C-4.66 2.68 -5.32 1.36 -6 0 C-3.50907189 -1.24546405 -2.58919267 -0.7767578 0 0 Z " fill="#894995" transform="translate(126,21)"/>
<path d="M0 0 C0.33 0.99 0.66 1.98 1 3 C-0.43359375 5.69921875 -0.43359375 5.69921875 -2.4375 8.6875 C-3.42556641 10.17830078 -3.42556641 10.17830078 -4.43359375 11.69921875 C-5.20896484 12.83810547 -5.20896484 12.83810547 -6 14 C-7 11 -7 11 -5.8203125 8.5546875 C-4.98113281 7.22824219 -4.98113281 7.22824219 -4.125 5.875 C-3.57070313 4.98554687 -3.01640625 4.09609375 -2.4453125 3.1796875 C-1 1 -1 1 0 0 Z " fill="#B6B6B6" transform="translate(541,29)"/>
<path d="M0 0 C0.33 0 0.66 0 1 0 C1 3.3 1 6.6 1 10 C0.01 10.495 0.01 10.495 -1 11 C-2.38550197 8.22899606 -2.1877467 6.0665294 -2 3 C-1.34 2.01 -0.68 1.02 0 0 Z " fill="#8D1060" transform="translate(104,33)"/>
<path d="M0 0 C4.29 0 8.58 0 13 0 C10.09907498 1.93395001 9.10325263 2.30131941 5.8125 2.625 C4.554375 2.74875 3.29625 2.8725 2 3 C2 2.34 2 1.68 2 1 C1.34 0.67 0.68 0.34 0 0 Z " fill="#8B3583" transform="translate(112,4)"/>
<path d="M0 0 C0.99 0 1.98 0 3 0 C3 0.66 3 1.32 3 2 C2.34 2 1.68 2 1 2 C0.67 3.98 0.34 5.96 0 8 C-0.99 7.67 -1.98 7.34 -3 7 C-3.6875 4.9375 -3.6875 4.9375 -4 3 C-3.01 3 -2.02 3 -1 3 C-0.67 2.01 -0.34 1.02 0 0 Z " fill="#8F0F67" transform="translate(111,5)"/>
<path d="M0 0 C1.32 0.33 2.64 0.66 4 1 C3.525625 1.5775 3.05125 2.155 2.5625 2.75 C1.03442665 4.95042563 0.61499961 6.45214446 0 9 C-0.99 9.495 -0.99 9.495 -2 10 C-1.125 2.25 -1.125 2.25 0 0 Z " fill="#A0258A" transform="translate(112,7)"/>
<path d="M0 0 C4.42857143 5.14285714 4.42857143 5.14285714 5 9 C4.34 9 3.68 9 3 9 C2.67 8.34 2.34 7.68 2 7 C1.01 7 0.02 7 -1 7 C-0.67 4.69 -0.34 2.38 0 0 Z " fill="#848484" transform="translate(290,60)"/>
<path d="M0 0 C2.47859908 2.2008849 3.61210366 4.06372969 4.6875 7.1875 C4.93886719 7.90292969 5.19023438 8.61835937 5.44921875 9.35546875 C5.63097656 9.89816406 5.81273438 10.44085938 6 11 C5.01 11 4.02 11 3 11 C2.49384702 9.73160474 1.99530901 8.46016898 1.5 7.1875 C1.2215625 6.47980469 0.943125 5.77210937 0.65625 5.04296875 C0 3 0 3 0 0 Z " fill="#741A4F" transform="translate(93,42)"/>
<path d="M0 0 C0.33 0.99 0.66 1.98 1 3 C-0.1796875 5.26171875 -0.1796875 5.26171875 -1.875 7.6875 C-2.42929687 8.49574219 -2.98359375 9.30398437 -3.5546875 10.13671875 C-4.03164063 10.75160156 -4.50859375 11.36648437 -5 12 C-5.33 12 -5.66 12 -6 12 C-6 10.35 -6 8.7 -6 7 C-5.01 7 -4.02 7 -3 7 C-2.690625 6.21625 -2.38125 5.4325 -2.0625 4.625 C-1 2 -1 2 0 0 Z " fill="#A5A5A5" transform="translate(548,17)"/>
<path d="M0 0 C3.68754757 0.49831724 5.60490662 1.10067643 8 4 C5.36 4 2.72 4 0 4 C0 2.68 0 1.36 0 0 Z " fill="#141615" transform="translate(143,72)"/>
<path d="M0 0 C4.59306496 1.4859916 7.43569245 3.85014682 11 7 C10.01 7.495 10.01 7.495 9 8 C7.68388323 7.04663979 6.37221039 6.08714226 5.0625 5.125 C4.33160156 4.59132813 3.60070312 4.05765625 2.84765625 3.5078125 C1 2 1 2 0 0 Z " fill="#C5C4C5" transform="translate(149,69)"/>
<path d="M0 0 C0.66 0 1.32 0 2 0 C2 2.97 2 5.94 2 9 C0.68 7.35 -0.64 5.7 -2 4 C-1.34 2.68 -0.68 1.36 0 0 Z " fill="#2A1824" transform="translate(86,23)"/>
<path d="M0 0 C0.33 0.99 0.66 1.98 1 3 C-0.4375 5.6875 -0.4375 5.6875 -2 8 C-2.66 7.67 -3.32 7.34 -4 7 C-4 5.68 -4 4.36 -4 3 C-3.34 3 -2.68 3 -2 3 C-1.34 2.01 -0.68 1.02 0 0 Z " fill="#262526" transform="translate(534,37)"/>
<path d="M0 0 C0.53625 0.226875 1.0725 0.45375 1.625 0.6875 C-3.79038462 3.76442308 -3.79038462 3.76442308 -6.75 3.375 C-7.554375 3.0346875 -7.554375 3.0346875 -8.375 2.6875 C-2.95961538 -0.38942308 -2.95961538 -0.38942308 0 0 Z " fill="#842B83" transform="translate(121.375,23.3125)"/>
<path d="M0 0 C4.21912747 0.4794463 6.79663178 1.16625119 10 4 C7.36 4 4.72 4 2 4 C2 3.01 2 2.02 2 1 C1.34 0.67 0.68 0.34 0 0 Z " fill="#CEB8D1" transform="translate(144,4)"/>
<path d="M0 0 C0.33 0.66 0.66 1.32 1 2 C1.99 2 2.98 2 4 2 C4 2.99 4 3.98 4 5 C4.66 5.33 5.32 5.66 6 6 C3.03 5.505 3.03 5.505 0 5 C0 3.35 0 1.7 0 0 Z " fill="#431836" transform="translate(98,55)"/>
</svg>
